<svg version="1.1" preserveAspectRatio="none" xmlns="http://www.w3.org/2000/svg" width="500" height="500" viewBox="0 0 500 500"><rect width="100%" height="100%" fill="#433A33" fill-opacity="1"/><svg viewBox="23.3642 157.5274 365.2156 100" width="333" height="91.17901863994857" x="83.5px" y="204.4105px" xmlns="http://www.w3.org/2000/svg" xmlns:xlink="http://www.w3.org/1999/xlink" preserveAspectRatio="none"><defs></defs><style>.companyName {fill:#EFEDE1;fill-opacity:1;}.icon3-str {stroke:#F5BEBE;stroke-opacity:1;}</style><g opacity="1" transform="rotate(0 23.3642 157.5274)">
<svg width="365.2156" height="100" x="23.3642" y="157.5274" version="1.1" preserveAspectRatio="none" viewBox="0 -28.96 167.56 45.879999999999995">
  <g transform="matrix(1 0 0 1 0 0)" class="companyName"><path id="id-D6z1nYkh13" d="M13-3.96L13-3.96Q12.04-5.24 10.52-7.52L10.52-7.52Q0-8.56 0-11.92L0-11.92Q0-12.68 0.78-13.16Q1.56-13.64 3.16-13.64L3.16-13.64Q7.16-13.64 11.12-8.56L11.12-8.56Q15.12-8.16 20.20-8.16L20.20-8.16L20.64-8.16Q25.76-11.24 30.16-14.36L30.16-14.36Q31.96-17.64 33.28-19.78Q34.60-21.92 36.48-24.24L36.48-24.24Q40.20-28.96 44.32-28.96L44.32-28.96Q45.40-28.96 45.40-28L45.40-28Q45.40-25.68 41.56-21.92Q37.72-18.16 31.36-13.84L31.36-13.84Q29.44-10.16 28.48-8.48L28.48-8.48Q34.08-8.92 36.56-9.84L36.56-9.84L36.68-9.84Q36.84-9.84 36.84-9.62Q36.84-9.40 36.56-9L36.56-9Q33.56-8.08 27.92-7.56L27.92-7.56Q25.76-3.84 23.74-1.78Q21.72 0.28 19.68 0.28L19.68 0.28Q16.40 0.28 13.48-3.36L13.48-3.36Q7.76-0.48 3.36 1.04L3.36 1.04Q2.76 1.24 1.98 1.24Q1.20 1.24 1.20 0.64L1.20 0.64Q1.20 0.32 1.52 0.06Q1.84-0.20 2.36-0.20L2.36-0.20Q5.56-0.20 13-3.96ZM20.64-7.16L20.64-7.16Q17.60-5.44 14.64-3.92L14.64-3.92Q17.32-0.60 19.52-0.60L19.52-0.60Q21.16-0.60 22.78-2.36Q24.40-4.12 26.36-7.44L26.36-7.44Q23.92-7.24 20.64-7.16ZM43.20-28L43.20-28Q40.44-28 37.64-24.32L37.64-24.32Q35.32-21.20 32.56-16.08L32.56-16.08Q37.60-19.80 40.64-22.86Q43.68-25.92 43.68-27.60L43.68-27.60Q43.68-28 43.20-28ZM1.92-12.08L1.92-12.08Q1.92-9.80 9.64-8.76L9.64-8.76Q6.52-12.92 3.36-12.92L3.36-12.92Q1.92-12.92 1.92-12.08ZM14.16-4.52L14.16-4.52Q16.64-5.84 18.92-7.16L18.92-7.16L18.76-7.16Q15.28-7.16 12.04-7.40L12.04-7.40Q13.56-5.28 14.16-4.52ZM29.08-12.32L29.08-12.32Q26.92-10.88 22.36-8.16L22.36-8.16Q25.44-8.24 26.88-8.36L26.88-8.36Q27.64-9.68 29.08-12.32Z M45.44-5.80L46.44-6.64Q46.72-6.84 46.96-6.84Q47.20-6.84 47.20-6.56L47.20-6.56L47.20-6.48Q43.04-3.04 40.88-1.68L40.88-1.68Q38.08 0.44 36.16 0.44L36.16 0.44Q34.48 0.44 34.48-1.56L34.48-1.56Q34.48-4.24 37.94-9.50Q41.40-14.76 45.72-18.96Q50.04-23.16 52.24-23.16L52.24-23.16Q53.24-23.16 53.24-22.28L53.24-22.28Q53.24-20.08 47.98-15.02Q42.72-9.96 37.64-6.40L37.64-6.40Q36.16-3.56 36.16-2.08Q36.16-0.60 37.20-0.60Q38.24-0.60 39.92-1.80L39.92-1.80Q42.76-3.48 45.44-5.80L45.44-5.80ZM51.24-21.88L51.24-21.88Q49.56-21.88 45.28-17.04Q41-12.20 38.20-7.36L38.20-7.36Q42.80-10.64 47.20-15.38Q51.60-20.12 51.60-21.52L51.60-21.52Q51.60-21.88 51.24-21.88Z M55.76-5.80L56.76-6.64Q57.04-6.84 57.28-6.84Q57.52-6.84 57.52-6.56L57.52-6.56L57.52-6.48Q53.36-3.04 50.60-1.32Q47.84 0.40 45.60 0.40L45.60 0.40Q43.80 0.40 43.80-1.36L43.80-1.36Q43.80-3.96 46.44-6.70Q49.08-9.44 50.88-9.44L50.88-9.44Q51.88-9.44 51.88-8.32L51.88-8.32Q51.68-6.12 45.56-2.40L45.56-2.40L45.56-2Q45.56-0.68 46.94-0.68Q48.32-0.68 49.92-1.60L49.92-1.60Q53.04-3.44 55.76-5.80L55.76-5.80ZM49.84-8.20L49.84-8.20Q48.96-8.20 47.58-6.72Q46.20-5.24 45.72-3.36L45.72-3.36Q47.64-4.52 48.96-5.82Q50.28-7.12 50.28-7.66Q50.28-8.20 49.84-8.20Z M66.08-5.80L67.08-6.64Q67.36-6.84 67.60-6.84Q67.84-6.84 67.84-6.56L67.84-6.56L67.84-6.48Q63.68-3.04 60.92-1.32Q58.16 0.40 55.92 0.40L55.92 0.40Q54.12 0.40 54.12-1.36L54.12-1.36Q54.12-3.96 56.76-6.70Q59.40-9.44 61.20-9.44L61.20-9.44Q62.20-9.44 62.20-8.32L62.20-8.32Q62-6.12 55.88-2.40L55.88-2.40L55.88-2Q55.88-0.68 57.26-0.68Q58.64-0.68 60.24-1.60L60.24-1.60Q63.36-3.44 66.08-5.80L66.08-5.80ZM60.16-8.20L60.16-8.20Q59.28-8.20 57.90-6.72Q56.52-5.24 56.04-3.36L56.04-3.36Q57.96-4.52 59.28-5.82Q60.60-7.12 60.60-7.66Q60.60-8.20 60.16-8.20Z M81.36-6.64L81.36-6.52Q72.92 0.52 70.92 0.52L70.92 0.52Q69.76 0.52 69.76-0.42Q69.76-1.36 71.96-3.94Q74.16-6.52 74.16-7.24L74.16-7.24Q74.08-7.32 74-7.32L74-7.32Q72.88-7.32 70.40-5.60L70.40-5.60Q54.32 16.92 52.12 16.92L52.12 16.92Q51.68 16.92 51.38 16.62Q51.08 16.32 51.08 15.72L51.08 15.72Q51.08 12.96 56.52 6.48Q61.96 0 67.68-4.44L67.68-4.44L71.20-9.56L71.20-9.60Q71.20-9.72 71.04-9.72L71.04-9.72Q70.24-8.32 66.72-5.52L66.72-5.52L65.56-4.64L65.40-5.24Q68.44-7.72 71.04-10.36Q73.64-13 74.72-14.40L74.72-14.40L75.80-15.80Q76.36-16.56 77.04-16.56Q77.72-16.56 77.72-16.16L77.72-16.16Q77.72-16 77.62-15.88Q77.52-15.76 76.70-14.58Q75.88-13.40 74.28-11.14Q72.68-8.88 71.28-6.88L71.28-6.88Q73.60-8.20 74.78-8.20Q75.96-8.20 75.96-7.72L75.96-7.72Q75.96-6.12 72.76-2.80L72.76-2.80Q71.68-1.68 71.68-1.34Q71.68-1 72.26-1Q72.84-1 74.32-2L74.32-2Q77.24-3.96 79.72-5.96L79.72-5.96L80.60-6.68Q80.88-6.88 81.12-6.88Q81.36-6.88 81.36-6.64L81.36-6.64ZM52.64 15.60L52.64 15.60Q53.88 15.60 66.36-2.48L66.36-2.48Q61.08 2 56.74 7.30Q52.40 12.60 52.40 15.36L52.40 15.36Q52.40 15.60 52.64 15.60Z M84.86-12.08Q85.24-12.08 85.46-11.84Q85.68-11.60 85.68-11.16Q85.68-10.72 85.08-10.04Q84.48-9.36 84.04-9.36Q83.60-9.36 83.40-9.62Q83.20-9.88 83.20-10.22Q83.20-10.56 83.84-11.32Q84.48-12.08 84.86-12.08ZM87.28-5.96L88.16-6.68Q88.48-6.88 88.66-6.88Q88.84-6.88 88.84-6.64L88.84-6.64L88.84-6.52Q89-6.52 86.70-4.76Q84.40-3 81.78-1.24Q79.16 0.52 78.48 0.52L78.48 0.52Q77.32 0.52 77.32-0.44L77.32-0.44Q77.32-1.60 79.32-4.82Q81.32-8.04 82.24-8.04L82.24-8.04Q82.92-8.04 82.92-7.52Q82.92-7 81.08-4.68Q79.24-2.36 79.24-1.36L79.24-1.36Q79.24-0.80 79.66-0.80Q80.08-0.80 81.76-1.92L81.76-1.92Q84.76-3.92 87.28-5.96L87.28-5.96Z M104.32-6.64L104.32-6.52Q95.88 0.52 93.88 0.52L93.88 0.52Q92.72 0.52 92.72-0.44Q92.72-1.40 93.58-2.72Q94.44-4.04 95.30-5.06Q96.16-6.08 96.16-6.28Q96.16-6.48 96.04-6.48L96.04-6.48Q92.32-4 91.62-3.44Q90.92-2.88 89.34-1.60Q87.76-0.32 87.28 0Q86.80 0.32 86.24 0.32L86.24 0.32Q85.68 0.32 85.68-0.16L85.68-0.16Q85.68-0.72 87.92-3.68L87.92-3.68Q90.08-6.64 90.08-7L90.08-7Q90.08-7.08 89.94-7.08Q89.80-7.08 86.48-4.64L86.48-4.64L86.32-5.24Q89.16-7.52 90.16-8.16Q91.16-8.80 91.78-8.80Q92.40-8.80 92.40-8.20L92.40-8.20Q92.40-7.80 90.14-4.94Q87.88-2.08 87.88-1.86Q87.88-1.64 88.02-1.64Q88.16-1.64 92.58-4.86Q97-8.08 97.96-8.08L97.96-8.08Q98.24-8.08 98.50-7.86Q98.76-7.64 98.76-7.44L98.76-7.44Q98.76-6.96 96.64-4.26Q94.52-1.56 94.52-1.20Q94.52-0.84 95.02-0.84Q95.52-0.84 97.16-1.92L97.16-1.92Q100.16-3.88 102.68-5.96L102.68-5.96L103.56-6.68Q103.84-6.88 104.08-6.88Q104.32-6.88 104.32-6.64L104.32-6.64Z M114.48-5.84L115.40-6.64Q115.68-6.84 115.92-6.84Q116.16-6.84 116.16-6.56L116.16-6.56L116.16-6.48Q112.28-3.28 110.08-1.84L110.08-1.84L102.08 3.36L99.60 6.84Q93.84 14.72 93.84 15.32L93.84 15.32Q93.20 16.72 92.60 16.72L92.60 16.72Q91.84 16.72 91.84 15.72Q91.84 14.72 92.82 13.04Q93.80 11.36 94.76 10.32L94.76 10.32L98.56 6.32Q99.04 5.56 100.52 3.52Q102.00 1.48 102.48 0.80L102.48 0.80L104.20-1.76L104.28-1.92Q104.28-2 104.20-2L104.20-2Q101.84-0.04 100.28-0.04Q98.72-0.04 98.72-0.94Q98.72-1.84 99.92-3.32Q101.12-4.80 102.82-6.20Q104.52-7.60 106.58-8.62Q108.64-9.64 110.22-9.64Q111.80-9.64 111.80-8.52L111.80-8.52Q111.80-7.72 110.30-6.60Q108.80-5.48 108.46-5.48Q108.12-5.48 108.12-5.64L108.12-5.64Q108.12-5.88 108.44-6.08L108.44-6.08Q109.80-7.04 109.80-7.90Q109.80-8.76 109.08-8.76L109.08-8.76Q107.32-8.76 104.18-5.78Q101.04-2.80 101.04-1.56L101.04-1.56Q101.04-1.20 101.62-1.20Q102.20-1.20 103.60-2.14Q105.00-3.08 105.72-3.96L105.72-3.96L106.80-5.32Q107.00-5.60 107.32-5.60Q107.64-5.60 107.88-5.40Q108.12-5.20 108.12-5L108.12-5L103.28 1.72L109.20-2Q111.84-3.60 114.48-5.84L114.48-5.84Z M136.96-16.96L136.96-16.96L131.24-17.24Q127.72-17.24 124.24-16.96L124.24-16.96L124.44-16.16Q124.44-15.72 121.84-12.82Q119.24-9.92 116.64-6.50Q114.04-3.08 114.04-1.44L114.04-1.44Q114.04-0.80 114.50-0.80Q114.96-0.80 116.60-1.92L116.60-1.92Q119.64-3.92 122.16-5.96L122.16-5.96L123.04-6.68Q123.32-6.88 123.52-6.88Q123.72-6.88 123.72-6.64L123.72-6.64L123.72-6.52Q123.88-6.52 121.58-4.76Q119.28-3 116.66-1.24Q114.04 0.52 113.36 0.52L113.36 0.52Q112.20 0.52 112.20-0.52L112.20-0.52Q112.20-2.04 113.90-4.72Q115.60-7.40 117.62-9.78Q119.64-12.16 121.46-14.28Q123.28-16.40 123.44-16.88L123.44-16.88Q119.04-16.48 116.68-15.92L116.68-15.92L115.88-15.76Q115.56-15.72 115.56-15.16L115.56-15.16Q115.56-14.92 115.00-14.92Q114.44-14.92 113.62-15.18Q112.80-15.44 112.80-15.92Q112.80-16.40 113.60-16.56L113.60-16.56Q119.52-17.60 122.00-17.82Q124.48-18.04 125.30-18.10Q126.12-18.16 127.86-18.20Q129.60-18.24 130.20-18.24L130.20-18.24Q132-18.32 134.42-18.32Q136.84-18.32 137.36-18.12Q137.88-17.92 137.88-17.36L137.88-17.36Q137.88-16.96 136.96-16.96Z M130.96-5.96L131.80-6.64Q132.08-6.84 132.32-6.84Q132.56-6.84 132.56-6.56L132.56-6.56L132.56-6.48Q129.56-4.08 126.64-1.98Q123.72 0.12 122.36 0.12L122.36 0.12Q121.36 0.12 121.36-0.96Q121.36-2.04 122.32-3.12Q123.28-4.20 124.22-5Q125.16-5.80 125.16-6.06Q125.16-6.32 124.86-6.66Q124.56-7 124.36-7.12L124.36-7.12Q123.68-6.44 121.40-4.64L121.40-4.64L121.24-5.24Q123.76-7.24 124.16-7.92L124.16-7.92L124.16-8.28Q124.16-9.28 124.36-9.64Q124.56-10 125.32-10.64Q126.08-11.28 126.36-11.28Q126.64-11.28 126.86-11.08Q127.08-10.88 127.08-10.68Q127.08-10.48 126.94-10.22Q126.80-9.96 126.66-9.78Q126.52-9.60 126.28-9.34Q126.04-9.08 125.98-8.98Q125.92-8.88 125.86-8.64Q125.80-8.40 125.60-8.24Q125.40-8.08 125.40-7.84Q125.40-7.60 125.72-6.78Q126.04-5.96 126.04-5.58Q126.04-5.20 124.56-3.78Q123.08-2.36 123.08-1.48L123.08-1.48Q123.08-1 123.52-1L123.52-1Q124.08-1 125.60-2L125.60-2L126.08-2.32Q128.68-4.12 130.96-5.96L130.96-5.96Z M135.92-4.80L135.92-4.80Q135.68-4.80 135.68-4.98Q135.68-5.16 135.96-5.40L135.96-5.40Q137.28-6.48 137.28-7.36L137.28-7.36Q137.28-7.92 136.28-8L136.28-8Q134.48-7.96 131.98-5.40Q129.48-2.84 129.48-1.56L129.48-1.56Q129.48-1.12 129.98-1.12Q130.48-1.12 131.32-1.80L131.32-1.80Q132.08-2.28 134.16-4.20L134.16-4.20Q134.64-4.68 135.08-4.68L135.08-4.68Q135.64-4.68 135.64-4.16L135.64-4.16Q135.64-3.96 135.52-3.84Q135.40-3.72 135.08-3.34Q134.76-2.96 134.52-2.64L134.52-2.64Q133.80-1.60 133.80-1.28L133.80-1.28Q133.80-0.48 134.44-0.48L134.44-0.48Q135.28-0.48 137.60-2.02Q139.92-3.56 141.84-5.12L141.84-5.12L143.76-6.64Q144.04-6.84 144.28-6.84Q144.52-6.84 144.52-6.56L144.52-6.56L144.52-6.48Q141.44-3.88 138.02-1.60Q134.60 0.68 133.52 0.68L133.52 0.68Q132.24 0.68 132.24-0.68L132.24-0.68Q132.24-1 132.36-1.28Q132.48-1.56 132.48-1.68Q132.48-1.80 132.40-1.84L132.40-1.84Q132.28-1.84 130.86-0.76Q129.44 0.32 128.38 0.32Q127.32 0.32 127.32-0.80Q127.32-1.92 128.82-3.82Q130.32-5.72 132.84-7.28Q135.36-8.84 137.76-8.84L137.76-8.84Q138.32-8.84 138.70-8.56Q139.08-8.28 139.08-7.70Q139.08-7.12 137.92-5.96Q136.76-4.80 135.92-4.80Z M148.10-12.08Q148.48-12.08 148.70-11.84Q148.92-11.60 148.92-11.16Q148.92-10.72 148.32-10.04Q147.72-9.36 147.28-9.36Q146.84-9.36 146.64-9.62Q146.44-9.88 146.44-10.22Q146.44-10.56 147.08-11.32Q147.72-12.08 148.10-12.08ZM150.52-5.96L151.40-6.68Q151.72-6.88 151.90-6.88Q152.08-6.88 152.08-6.64L152.08-6.64L152.08-6.52Q152.24-6.52 149.94-4.76Q147.64-3 145.02-1.24Q142.40 0.52 141.72 0.52L141.72 0.52Q140.56 0.52 140.56-0.44L140.56-0.44Q140.56-1.60 142.56-4.82Q144.56-8.04 145.48-8.04L145.48-8.04Q146.16-8.04 146.16-7.52Q146.16-7 144.32-4.68Q142.48-2.36 142.48-1.36L142.48-1.36Q142.48-0.80 142.90-0.80Q143.32-0.80 145-1.92L145-1.92Q148-3.92 150.52-5.96L150.52-5.96Z M167.56-6.64L167.56-6.52Q159.12 0.52 157.12 0.52L157.12 0.52Q155.96 0.52 155.96-0.44Q155.96-1.40 156.82-2.72Q157.68-4.04 158.54-5.06Q159.40-6.08 159.40-6.28Q159.40-6.48 159.28-6.48L159.28-6.48Q155.56-4 154.86-3.44Q154.16-2.88 152.58-1.60Q151-0.32 150.52 0Q150.04 0.32 149.48 0.32L149.48 0.32Q148.92 0.32 148.92-0.16L148.92-0.16Q148.92-0.72 151.16-3.68L151.16-3.68Q153.32-6.64 153.32-7L153.32-7Q153.32-7.08 153.18-7.08Q153.04-7.08 149.72-4.64L149.72-4.64L149.56-5.24Q152.40-7.52 153.40-8.16Q154.40-8.80 155.02-8.80Q155.64-8.80 155.64-8.20L155.64-8.20Q155.64-7.80 153.38-4.94Q151.12-2.08 151.12-1.86Q151.12-1.64 151.26-1.64Q151.40-1.64 155.82-4.86Q160.24-8.08 161.20-8.08L161.20-8.08Q161.48-8.08 161.74-7.86Q162-7.64 162-7.44L162-7.44Q162-6.96 159.88-4.26Q157.76-1.56 157.76-1.20Q157.76-0.84 158.26-0.84Q158.76-0.84 160.40-1.92L160.40-1.92Q163.40-3.88 165.92-5.96L165.92-5.96L166.80-6.68Q167.08-6.88 167.32-6.88Q167.56-6.88 167.56-6.64L167.56-6.64Z"/></g>
</svg>
</g></svg></svg>